<svg width="212" height="173" viewBox="0 0 212 173" fill="none" xmlns="http://www.w3.org/2000/svg">
<path d="M204.114 28.616L186.688 13.9785C184.274 11.9512 180.999 10.8125 177.583 10.8125H115.875V5.40625C115.875 2.4193 112.994 0 109.438 0H96.5624C93.0057 0 90.1249 2.4193 90.1249 5.40625V10.8125H22.5305C17.1994 10.8125 12.8741 14.4448 12.8741 18.9219V45.9531C12.8741 50.4302 17.1994 54.0625 22.5305 54.0625H177.583C180.999 54.0625 184.27 52.9238 186.688 50.8965L204.114 36.2624C206.629 34.1472 206.629 30.7278 204.114 28.616ZM90.1249 167.594C90.1249 170.581 93.0057 173 96.5624 173H109.438C112.994 173 115.875 170.581 115.875 167.594V129.75H90.1249V167.594ZM183.47 75.6875H115.875V64.875H90.1249V75.6875H28.4168C25.0009 75.6875 21.7298 76.8262 19.3117 78.8535L1.886 93.491C-0.628668 95.6028 -0.628668 99.0256 1.886 101.137L19.3117 115.771C21.7258 117.799 25.0009 118.938 28.4168 118.938H183.47C188.801 118.938 193.126 115.305 193.126 110.828V83.7969C193.126 79.3198 188.801 75.6875 183.47 75.6875Z" fill="white"/>
<path d="M86.532 19.344V23.18H78.524V27.324H84.516V31.048H78.524V39H73.736V19.344H86.532ZM93.8365 25.98C94.3965 25.1213 95.0965 24.4493 95.9365 23.964C96.7765 23.46 97.7098 23.208 98.7365 23.208V28.276H97.4205C96.2258 28.276 95.3298 28.5373 94.7325 29.06C94.1352 29.564 93.8365 30.46 93.8365 31.748V39H89.0485V23.376H93.8365V25.98ZM115.753 30.936C115.753 31.384 115.725 31.8507 115.669 32.336H104.833C104.908 33.3067 105.216 34.0533 105.757 34.576C106.317 35.08 106.998 35.332 107.801 35.332C108.996 35.332 109.826 34.828 110.293 33.82H115.389C115.128 34.8467 114.652 35.7707 113.961 36.592C113.289 37.4133 112.44 38.0573 111.413 38.524C110.386 38.9907 109.238 39.224 107.969 39.224C106.438 39.224 105.076 38.8973 103.881 38.244C102.686 37.5907 101.753 36.6573 101.081 35.444C100.409 34.2307 100.073 32.812 100.073 31.188C100.073 29.564 100.4 28.1453 101.053 26.932C101.725 25.7187 102.658 24.7853 103.853 24.132C105.048 23.4787 106.42 23.152 107.969 23.152C109.481 23.152 110.825 23.4693 112.001 24.104C113.177 24.7387 114.092 25.644 114.745 26.82C115.417 27.996 115.753 29.368 115.753 30.936ZM110.853 29.676C110.853 28.8547 110.573 28.2013 110.013 27.716C109.453 27.2307 108.753 26.988 107.913 26.988C107.11 26.988 106.429 27.2213 105.869 27.688C105.328 28.1547 104.992 28.8173 104.861 29.676H110.853ZM133.007 30.936C133.007 31.384 132.979 31.8507 132.923 32.336H122.087C122.162 33.3067 122.47 34.0533 123.011 34.576C123.571 35.08 124.252 35.332 125.055 35.332C126.25 35.332 127.08 34.828 127.547 33.82H132.643C132.382 34.8467 131.906 35.7707 131.215 36.592C130.543 37.4133 129.694 38.0573 128.667 38.524C127.64 38.9907 126.492 39.224 125.223 39.224C123.692 39.224 122.33 38.8973 121.135 38.244C119.94 37.5907 119.007 36.6573 118.335 35.444C117.663 34.2307 117.327 32.812 117.327 31.188C117.327 29.564 117.654 28.1453 118.307 26.932C118.979 25.7187 119.912 24.7853 121.107 24.132C122.302 23.4787 123.674 23.152 125.223 23.152C126.735 23.152 128.079 23.4693 129.255 24.104C130.431 24.7387 131.346 25.644 131.999 26.82C132.671 27.996 133.007 29.368 133.007 30.936ZM128.107 29.676C128.107 28.8547 127.827 28.2013 127.267 27.716C126.707 27.2307 126.007 26.988 125.167 26.988C124.364 26.988 123.683 27.2213 123.123 27.688C122.582 28.1547 122.246 28.8173 122.115 29.676H128.107Z" fill="black"/>
<path d="M41.742 86.748V90.31H36.906V105H32.46V90.31H27.624V86.748H41.742ZM50.5773 105.208C49.156 105.208 47.8733 104.905 46.7293 104.298C45.6027 103.691 44.71 102.825 44.0513 101.698C43.41 100.571 43.0893 99.254 43.0893 97.746C43.0893 96.2553 43.4187 94.9467 44.0773 93.82C44.736 92.676 45.6373 91.8007 46.7813 91.194C47.9253 90.5873 49.208 90.284 50.6293 90.284C52.0507 90.284 53.3333 90.5873 54.4773 91.194C55.6213 91.8007 56.5227 92.676 57.1813 93.82C57.84 94.9467 58.1693 96.2553 58.1693 97.746C58.1693 99.2367 57.8313 100.554 57.1553 101.698C56.4967 102.825 55.5867 103.691 54.4253 104.298C53.2813 104.905 51.9987 105.208 50.5773 105.208ZM50.5773 101.36C51.4267 101.36 52.146 101.048 52.7353 100.424C53.342 99.8 53.6453 98.9073 53.6453 97.746C53.6453 96.5847 53.3507 95.692 52.7613 95.068C52.1893 94.444 51.4787 94.132 50.6293 94.132C49.7627 94.132 49.0433 94.444 48.4713 95.068C47.8993 95.6747 47.6133 96.5673 47.6133 97.746C47.6133 98.9073 47.8907 99.8 48.4453 100.424C49.0173 101.048 49.728 101.36 50.5773 101.36ZM79.04 90.336C80.8427 90.336 82.2727 90.882 83.33 91.974C84.4047 93.066 84.942 94.5827 84.942 96.524V105H80.522V97.122C80.522 96.186 80.2707 95.4667 79.768 94.964C79.2827 94.444 78.6067 94.184 77.74 94.184C76.8733 94.184 76.1887 94.444 75.686 94.964C75.2007 95.4667 74.958 96.186 74.958 97.122V105H70.538V97.122C70.538 96.186 70.2867 95.4667 69.784 94.964C69.2987 94.444 68.6227 94.184 67.756 94.184C66.8893 94.184 66.2047 94.444 65.702 94.964C65.2167 95.4667 64.974 96.186 64.974 97.122V105H60.528V90.492H64.974V92.312C65.4247 91.7053 66.014 91.2287 66.742 90.882C67.47 90.518 68.2933 90.336 69.212 90.336C70.304 90.336 71.2747 90.57 72.124 91.038C72.9907 91.506 73.6667 92.1733 74.152 93.04C74.6547 92.2427 75.3393 91.5927 76.206 91.09C77.0727 90.5873 78.0173 90.336 79.04 90.336ZM94.6555 105.208C93.2341 105.208 91.9515 104.905 90.8075 104.298C89.6808 103.691 88.7881 102.825 88.1295 101.698C87.4881 100.571 87.1675 99.254 87.1675 97.746C87.1675 96.2553 87.4968 94.9467 88.1555 93.82C88.8141 92.676 89.7155 91.8007 90.8595 91.194C92.0035 90.5873 93.2861 90.284 94.7075 90.284C96.1288 90.284 97.4115 90.5873 98.5555 91.194C99.6995 91.8007 100.601 92.676 101.259 93.82C101.918 94.9467 102.247 96.2553 102.247 97.746C102.247 99.2367 101.909 100.554 101.233 101.698C100.575 102.825 99.6648 103.691 98.5035 104.298C97.3595 104.905 96.0768 105.208 94.6555 105.208ZM94.6555 101.36C95.5048 101.36 96.2241 101.048 96.8135 100.424C97.4201 99.8 97.7235 98.9073 97.7235 97.746C97.7235 96.5847 97.4288 95.692 96.8395 95.068C96.2675 94.444 95.5568 94.132 94.7075 94.132C93.8408 94.132 93.1215 94.444 92.5495 95.068C91.9775 95.6747 91.6915 96.5673 91.6915 97.746C91.6915 98.9073 91.9688 99.8 92.5235 100.424C93.0955 101.048 93.8061 101.36 94.6555 101.36ZM109.052 92.91C109.572 92.1127 110.222 91.4887 111.002 91.038C111.782 90.57 112.649 90.336 113.602 90.336V95.042H112.38C111.271 95.042 110.439 95.2847 109.884 95.77C109.329 96.238 109.052 97.07 109.052 98.266V105H104.606V90.492H109.052V92.91ZM120.173 92.91C120.693 92.1127 121.343 91.4887 122.123 91.038C122.903 90.57 123.77 90.336 124.723 90.336V95.042H123.501C122.392 95.042 121.56 95.2847 121.005 95.77C120.451 96.238 120.173 97.07 120.173 98.266V105H115.727V90.492H120.173V92.91ZM133.452 105.208C132.031 105.208 130.748 104.905 129.604 104.298C128.478 103.691 127.585 102.825 126.926 101.698C126.285 100.571 125.964 99.254 125.964 97.746C125.964 96.2553 126.294 94.9467 126.952 93.82C127.611 92.676 128.512 91.8007 129.656 91.194C130.8 90.5873 132.083 90.284 133.504 90.284C134.926 90.284 136.208 90.5873 137.352 91.194C138.496 91.8007 139.398 92.676 140.056 93.82C140.715 94.9467 141.044 96.2553 141.044 97.746C141.044 99.2367 140.706 100.554 140.03 101.698C139.372 102.825 138.462 103.691 137.3 104.298C136.156 104.905 134.874 105.208 133.452 105.208ZM133.452 101.36C134.302 101.36 135.021 101.048 135.61 100.424C136.217 99.8 136.52 98.9073 136.52 97.746C136.52 96.5847 136.226 95.692 135.636 95.068C135.064 94.444 134.354 94.132 133.504 94.132C132.638 94.132 131.918 94.444 131.346 95.068C130.774 95.6747 130.488 96.5673 130.488 97.746C130.488 98.9073 130.766 99.8 131.32 100.424C131.892 101.048 132.603 101.36 133.452 101.36ZM164.229 90.492L160.303 105H155.389L153.101 95.588L150.735 105H145.847L141.895 90.492H146.341L148.395 100.866L150.839 90.492H155.545L158.015 100.814L160.043 90.492H164.229ZM171.255 85.734C173.109 85.734 174.591 86.2193 175.701 87.19C176.827 88.1607 177.391 89.53 177.391 91.298C177.391 92.9273 176.853 94.2013 175.779 95.12C174.721 96.0213 173.317 96.4807 171.567 96.498L171.437 98.448H167.537L167.407 93.612H168.967C170.301 93.612 171.315 93.4473 172.009 93.118C172.719 92.7887 173.075 92.1907 173.075 91.324C173.075 90.7173 172.91 90.2407 172.581 89.894C172.251 89.5473 171.792 89.374 171.203 89.374C170.579 89.374 170.093 89.556 169.747 89.92C169.4 90.2667 169.227 90.7433 169.227 91.35H165.041C165.006 90.2927 165.223 89.3393 165.691 88.49C166.176 87.6407 166.887 86.9733 167.823 86.488C168.776 85.9853 169.92 85.734 171.255 85.734ZM169.539 105.208C168.759 105.208 168.117 104.983 167.615 104.532C167.129 104.064 166.887 103.492 166.887 102.816C166.887 102.123 167.129 101.542 167.615 101.074C168.117 100.606 168.759 100.372 169.539 100.372C170.301 100.372 170.925 100.606 171.411 101.074C171.913 101.542 172.165 102.123 172.165 102.816C172.165 103.492 171.913 104.064 171.411 104.532C170.925 104.983 170.301 105.208 169.539 105.208Z" fill="black"/>
</svg>

