<svg width="873" height="879" viewBox="0 0 873 879" fill="none" xmlns="http://www.w3.org/2000/svg">
<path d="M865.007 145.396L791.16 71.0239C780.929 60.7231 767.05 54.9375 752.573 54.9375L491.063 54.9375V27.4687C491.063 12.2923 478.855 0 463.782 0L409.218 0C394.145 0 381.937 12.2923 381.937 27.4687V54.9375L95.481 54.9375C72.8885 54.9375 54.5588 73.3931 54.5588 96.1406L54.5588 233.484C54.5588 256.232 72.8885 274.688 95.481 274.688H752.573C767.05 274.688 780.912 268.902 791.16 258.601L865.007 184.247C875.664 173.499 875.664 156.126 865.007 145.396ZM381.937 851.531C381.937 866.708 394.145 879 409.218 879H463.782C478.855 879 491.063 866.708 491.063 851.531V659.25H381.937V851.531ZM777.519 384.562H491.063V329.625H381.937V384.562H120.427C105.95 384.562 92.0879 390.348 81.8403 400.649L7.99263 475.021C-2.66421 485.751 -2.66421 503.142 7.99263 513.872L81.8403 588.226C92.0709 598.527 105.95 604.312 120.427 604.312H777.519C800.111 604.312 818.441 585.857 818.441 563.109V425.766C818.441 403.018 800.111 384.562 777.519 384.562Z" fill="white"/>
<path d="M339.456 118.425V142.383H362.083V153.273H339.456V188H329.05V107.535H373.094V118.425H339.456ZM404.953 139.116C403.017 138.229 401.283 137.785 399.75 137.785C396.523 137.785 393.861 138.914 391.764 141.173C389.505 143.593 388.376 146.376 388.376 149.522V188H377.97V149.522C377.97 145.166 379.059 141.173 381.237 137.543C383.496 133.913 386.561 131.09 390.433 129.073C393.337 127.702 396.443 127.016 399.75 127.016C402.412 127.016 404.953 127.5 407.373 128.468C409.793 129.436 412.334 131.009 414.996 133.187L404.953 139.116ZM425.479 162.348C425.479 164.284 426.165 166.301 427.536 168.398C428.988 170.495 430.642 172.27 432.497 173.722C435.885 176.384 439.838 177.715 444.355 177.715C451.535 177.715 457.383 174.246 461.9 167.309L471.096 172.754C467.95 177.836 464.078 181.748 459.48 184.491C454.882 187.234 449.841 188.605 444.355 188.605C440.241 188.605 436.329 187.839 432.618 186.306C428.908 184.693 425.641 182.474 422.817 179.651C419.994 176.828 417.776 173.561 416.162 169.85C414.63 166.139 413.863 162.227 413.863 158.113C413.863 153.999 414.63 150.087 416.162 146.376C417.776 142.585 419.994 139.277 422.817 136.454C425.56 133.631 428.787 131.453 432.497 129.92C436.289 128.387 440.241 127.621 444.355 127.621C448.469 127.621 452.382 128.387 456.092 129.92C459.884 131.453 463.151 133.631 465.893 136.454C471.863 142.585 474.847 149.683 474.847 157.75C474.847 159.202 474.726 160.735 474.484 162.348H425.479ZM444.355 137.543C441.048 137.543 437.942 138.269 435.038 139.721C432.134 141.173 429.795 143.109 428.02 145.529C426.326 147.868 425.479 150.369 425.479 153.031H463.231C463.231 150.369 462.344 147.868 460.569 145.529C458.875 143.109 456.576 141.173 453.672 139.721C450.768 138.269 447.663 137.543 444.355 137.543ZM494.96 162.348C494.96 164.284 495.646 166.301 497.017 168.398C498.469 170.495 500.123 172.27 501.978 173.722C505.366 176.384 509.319 177.715 513.836 177.715C521.015 177.715 526.864 174.246 531.381 167.309L540.577 172.754C537.431 177.836 533.559 181.748 528.961 184.491C524.363 187.234 519.321 188.605 513.836 188.605C509.722 188.605 505.81 187.839 502.099 186.306C498.388 184.693 495.121 182.474 492.298 179.651C489.475 176.828 487.256 173.561 485.643 169.85C484.11 166.139 483.344 162.227 483.344 158.113C483.344 153.999 484.11 150.087 485.643 146.376C487.256 142.585 489.475 139.277 492.298 136.454C495.041 133.631 498.267 131.453 501.978 129.92C505.769 128.387 509.722 127.621 513.836 127.621C517.95 127.621 521.862 128.387 525.573 129.92C529.364 131.453 532.631 133.631 535.374 136.454C541.343 142.585 544.328 149.683 544.328 157.75C544.328 159.202 544.207 160.735 543.965 162.348H494.96ZM513.836 137.543C510.529 137.543 507.423 138.269 504.519 139.721C501.615 141.173 499.276 143.109 497.501 145.529C495.807 147.868 494.96 150.369 494.96 153.031H532.712C532.712 150.369 531.825 147.868 530.05 145.529C528.356 143.109 526.057 141.173 523.153 139.721C520.249 138.269 517.143 137.543 513.836 137.543Z" fill="black"/>
<path d="M177.969 455.82V526H167.321V455.82H147.84V445.535H197.45V455.82H177.969ZM224.419 526.605C220.305 526.605 216.392 525.798 212.682 524.185C208.971 522.572 205.704 520.353 202.881 517.53C200.057 514.707 197.839 511.44 196.226 507.729C194.612 504.018 193.806 500.106 193.806 495.992C193.806 491.797 194.612 487.804 196.226 484.013C197.839 480.222 200.057 476.914 202.881 474.091C205.704 471.268 208.971 469.09 212.682 467.557C216.392 465.944 220.305 465.137 224.419 465.137C228.613 465.137 232.606 465.944 236.398 467.557C240.189 469.09 243.496 471.268 246.32 474.091C249.143 476.914 251.321 480.222 252.854 484.013C254.467 487.804 255.274 491.797 255.274 495.992C255.274 500.106 254.467 504.018 252.854 507.729C251.321 511.44 249.143 514.707 246.32 517.53C243.496 520.353 240.189 522.572 236.398 524.185C232.606 525.798 228.613 526.605 224.419 526.605ZM224.419 475.906C219.014 475.906 214.376 477.842 210.504 481.714C208.648 483.569 207.196 485.747 206.148 488.248C205.099 490.749 204.575 493.33 204.575 495.992C204.575 498.654 205.099 501.195 206.148 503.615C207.196 506.035 208.648 508.173 210.504 510.028C212.359 511.883 214.456 513.335 216.796 514.384C219.216 515.433 221.757 515.957 224.419 515.957C227.081 515.957 229.662 515.433 232.163 514.384C234.663 513.335 236.801 511.883 238.576 510.028C240.35 508.173 241.762 506.035 242.811 503.615C243.859 501.195 244.384 498.654 244.384 495.992C244.384 493.33 243.859 490.749 242.811 488.248C241.762 485.747 240.35 483.569 238.576 481.714C236.801 479.859 234.663 478.447 232.163 477.479C229.743 476.43 227.161 475.906 224.419 475.906ZM335.726 526V488.127C335.726 484.82 334.556 482.037 332.217 479.778C329.958 477.519 327.175 476.39 323.868 476.39C320.641 476.39 317.818 477.519 315.398 479.778C313.058 481.956 311.889 484.699 311.889 488.006V526H300.878V488.006C300.878 484.618 299.748 481.875 297.49 479.778C295.07 477.519 292.206 476.39 288.899 476.39C285.672 476.39 282.929 477.519 280.671 479.778C278.251 482.198 277.041 485.062 277.041 488.369V526H266.151V466.952H277.041V471.429C278.412 469.735 280.187 468.323 282.365 467.194C284.623 466.065 286.801 465.5 288.899 465.5C292.448 465.5 295.675 466.226 298.579 467.678C301.563 469.049 304.145 470.985 306.323 473.486C308.501 470.985 311.082 469.049 314.067 467.678C317.051 466.226 320.318 465.5 323.868 465.5C327.014 465.5 329.958 466.065 332.701 467.194C335.443 468.323 337.863 469.937 339.961 472.034C342.058 474.131 343.671 476.592 344.801 479.415C346.011 482.158 346.616 485.062 346.616 488.127V526H335.726ZM388.076 526.605C383.962 526.605 380.05 525.798 376.339 524.185C372.628 522.572 369.361 520.353 366.538 517.53C363.715 514.707 361.496 511.44 359.883 507.729C358.27 504.018 357.463 500.106 357.463 495.992C357.463 491.797 358.27 487.804 359.883 484.013C361.496 480.222 363.715 476.914 366.538 474.091C369.361 471.268 372.628 469.09 376.339 467.557C380.05 465.944 383.962 465.137 388.076 465.137C392.271 465.137 396.264 465.944 400.055 467.557C403.846 469.09 407.154 471.268 409.977 474.091C412.8 476.914 414.978 480.222 416.511 484.013C418.124 487.804 418.931 491.797 418.931 495.992C418.931 500.106 418.124 504.018 416.511 507.729C414.978 511.44 412.8 514.707 409.977 517.53C407.154 520.353 403.846 522.572 400.055 524.185C396.264 525.798 392.271 526.605 388.076 526.605ZM388.076 475.906C382.671 475.906 378.033 477.842 374.161 481.714C372.306 483.569 370.854 485.747 369.805 488.248C368.756 490.749 368.232 493.33 368.232 495.992C368.232 498.654 368.756 501.195 369.805 503.615C370.854 506.035 372.306 508.173 374.161 510.028C376.016 511.883 378.114 513.335 380.453 514.384C382.873 515.433 385.414 515.957 388.076 515.957C390.738 515.957 393.319 515.433 395.82 514.384C398.321 513.335 400.458 511.883 402.233 510.028C404.008 508.173 405.419 506.035 406.468 503.615C407.517 501.195 408.041 498.654 408.041 495.992C408.041 493.33 407.517 490.749 406.468 488.248C405.419 485.747 404.008 483.569 402.233 481.714C400.458 479.859 398.321 478.447 395.82 477.479C393.4 476.43 390.819 475.906 388.076 475.906ZM456.791 477.116C454.855 476.229 453.12 475.785 451.588 475.785C448.361 475.785 445.699 476.914 443.602 479.173C441.343 481.593 440.214 484.376 440.214 487.522V526H429.808V487.522C429.808 483.166 430.897 479.173 433.075 475.543C435.333 471.913 438.399 469.09 442.271 467.073C445.175 465.702 448.28 465.016 451.588 465.016C454.25 465.016 456.791 465.5 459.211 466.468C461.631 467.436 464.172 469.009 466.834 471.187L456.791 477.116ZM497.557 477.116C495.621 476.229 493.887 475.785 492.354 475.785C489.128 475.785 486.466 476.914 484.368 479.173C482.11 481.593 480.98 484.376 480.98 487.522V526H470.574V487.522C470.574 483.166 471.663 479.173 473.841 475.543C476.1 471.913 479.165 469.09 483.037 467.073C485.941 465.702 489.047 465.016 492.354 465.016C495.016 465.016 497.557 465.5 499.977 466.468C502.397 467.436 504.938 469.009 507.6 471.187L497.557 477.116ZM537.081 526.605C532.967 526.605 529.055 525.798 525.344 524.185C521.633 522.572 518.366 520.353 515.543 517.53C512.72 514.707 510.501 511.44 508.888 507.729C507.275 504.018 506.468 500.106 506.468 495.992C506.468 491.797 507.275 487.804 508.888 484.013C510.501 480.222 512.72 476.914 515.543 474.091C518.366 471.268 521.633 469.09 525.344 467.557C529.055 465.944 532.967 465.137 537.081 465.137C541.276 465.137 545.269 465.944 549.06 467.557C552.851 469.09 556.159 471.268 558.982 474.091C561.805 476.914 563.983 480.222 565.516 484.013C567.129 487.804 567.936 491.797 567.936 495.992C567.936 500.106 567.129 504.018 565.516 507.729C563.983 511.44 561.805 514.707 558.982 517.53C556.159 520.353 552.851 522.572 549.06 524.185C545.269 525.798 541.276 526.605 537.081 526.605ZM537.081 475.906C531.676 475.906 527.038 477.842 523.166 481.714C521.311 483.569 519.859 485.747 518.81 488.248C517.761 490.749 517.237 493.33 517.237 495.992C517.237 498.654 517.761 501.195 518.81 503.615C519.859 506.035 521.311 508.173 523.166 510.028C525.021 511.883 527.119 513.335 529.458 514.384C531.878 515.433 534.419 515.957 537.081 515.957C539.743 515.957 542.324 515.433 544.825 514.384C547.326 513.335 549.463 511.883 551.238 510.028C553.013 508.173 554.424 506.035 555.473 503.615C556.522 501.195 557.046 498.654 557.046 495.992C557.046 493.33 556.522 490.749 555.473 488.248C554.424 485.747 553.013 483.569 551.238 481.714C549.463 479.859 547.326 478.447 544.825 477.479C542.405 476.43 539.824 475.906 537.081 475.906ZM640.276 526H629.749L618.738 498.654L607.727 526H597.2L572.758 465.5H584.616L602.403 509.665L612.809 484.134L605.307 465.5H617.165L634.952 509.665L652.739 465.5H664.476L640.276 526ZM707.418 495.145V507.608H696.77V490.063L708.628 479.899C711.048 477.802 712.782 475.745 713.831 473.728C714.879 471.711 715.404 469.453 715.404 466.952C715.404 462.677 713.911 458.966 710.927 455.82C707.942 452.835 704.352 451.343 700.158 451.343C698.06 451.343 696.044 451.746 694.108 452.553C692.252 453.36 690.639 454.529 689.268 456.062C687.816 457.595 686.686 459.45 685.88 461.628C685.154 463.725 684.791 465.984 684.791 468.404H674.143C674.143 464.451 674.788 460.741 676.079 457.272C677.45 453.803 679.346 450.819 681.766 448.318C684.186 445.817 686.969 443.881 690.115 442.51C693.261 441.058 696.608 440.332 700.158 440.332C703.707 440.332 707.014 441.018 710.08 442.389C713.226 443.76 716.009 445.656 718.429 448.076C720.849 450.577 722.704 453.44 723.995 456.667C725.366 459.894 726.052 463.322 726.052 466.952C726.052 475.261 722.543 482.4 715.525 488.369L707.418 495.145ZM702.094 526.605C700.319 526.605 698.786 525.96 697.496 524.669C696.286 523.378 695.681 521.805 695.681 519.95C695.681 518.095 696.286 516.522 697.496 515.231C698.786 513.94 700.319 513.295 702.094 513.295C703.949 513.295 705.482 513.94 706.692 515.231C707.982 516.522 708.628 518.095 708.628 519.95C708.628 521.805 707.982 523.378 706.692 524.669C705.482 525.96 703.949 526.605 702.094 526.605Z" fill="black"/>
</svg>
